<svg xmlns:xlink="http://www.w3.org/1999/xlink" xmlns="http://www.w3.org/2000/svg" width="197" height="50" viewBox="0 0 197 50" fill="none" class="logo"><g clip-path="url(#clip0_2798_53)" fill="none"><path d="M75.6072 34.6167H81.3229V15.3867H75.6072V34.6167ZM84.7863 34.6133H90.4478V24.3826L98.2327 34.6133H103.24V15.3833H97.578V25.2307L90.095 15.3833H84.7897V34.6133H84.7863ZM54.8406 34.6133H60.5699V28.2598H67.0183L69.5285 23.9383H60.5733V20.1967H70.5292L73.3073 15.3799H54.844V34.6099L54.8406 34.6133ZM106.693 34.6099H112.408V28.2564H118.84L121.343 23.9349H112.405V20.1933H122.337L125.109 15.3765H106.686V34.6065L106.693 34.6099ZM127.422 34.6167H140.882L143.674 29.7999H133.141V15.3833H127.425V34.6133L127.422 34.6167ZM155.024 35C150.526 35 145.024 30.5224 145.024 25C145.024 19.4776 149.501 15 155.024 15C160.546 15 165.024 19.4776 165.024 25C165.024 30.5224 160.546 35 155.024 35ZM155.024 20.0678C152.3 20.0678 150.092 22.2761 150.092 25C150.092 27.7239 152.3 29.9322 155.024 29.9322C157.748 29.9322 159.956 27.7239 159.956 25C159.956 22.2761 157.748 20.0678 155.024 20.0678ZM168.097 34.5726H173.691L179.895 23.8263L181.676 34.5658H185.753L196.852 15.3426H190.339L184.99 24.6065L183.446 15.3392H179.118L173.748 24.6065V15.3426H168.097V34.5692V34.5726Z" fill="black"></path><path d="M21.5163 7.327L36.8826 16.1974V33.6635L27.7476 38.9383L12.578 30.017L8.19539 32.5102L23.4464 41.4213L21.5163 42.5339L6.14993 33.6635V16.1974L15.1493 11.0007L30.4206 19.8745L34.7897 17.3575L19.464 8.50746L21.5163 7.32361V7.327ZM43.3005 12.5V37.5L21.6486 50L0 37.5V12.5L21.652 0L43.3039 12.5H43.3005ZM41.7436 13.4668L21.6486 1.86567L1.5536 13.4668V36.3976L21.6486 47.9986L41.7436 36.3976V13.4668Z" fill="#0046FF"></path></g><defs><clipPath id="clip0_2798_53"><rect width="196.852" height="50" fill="white"></rect></clipPath></defs></svg>