<svg xmlns:xlink="http://www.w3.org/1999/xlink" width="204" height="30" viewBox="0 0 204 30" fill="none" xmlns="http://www.w3.org/2000/svg" id="pentacle"><g clip-path="url(#clip0_0_44)" fill="none"><path d="M52.9532 17.9157C51.8718 19.314 49.3902 19.1208 47.99 19.1208H42.856V23.0541H39.3612V6.94554H48.1607C48.7299 6.94554 49.2763 6.94554 49.8455 6.96828C50.9497 6.99101 52.2588 7.16153 53.0898 8.32108C53.8867 9.43515 53.8867 11.7542 53.8867 13.2207C53.8867 14.7668 53.8184 16.7789 52.9532 17.9157ZM49.0031 11.0039C48.7299 11.0039 48.4339 10.9812 48.1607 10.9812H43.0609V15.0851H48.9803C50.3122 15.0851 50.5627 14.744 50.5627 12.891C50.574 11.129 50.1187 11.0494 49.0031 11.0039Z" fill="black"></path><path d="M60.3414 23.0532V6.9446H74.8668V10.7415H64.2118V13.0834L74.8668 13.072V16.5961L64.2118 16.6075V19.188H74.8668V23.0532H60.3414Z" fill="black"></path><path d="M90.8359 23.0532L85.2124 11.0485L85.3034 23.0532H81.3078V6.9446H87.7623L93.5338 18.9493L93.4427 6.9446H97.4383V23.0532H90.8359Z" fill="black"></path><path d="M114.102 11.0485V23.0532H109.845V11.0485H103.903V6.9446H120.033V11.0485H114.102Z" fill="black"></path><path d="M138.246 23.0532L137.165 20.3248H128.764L127.682 23.0532H123.265L129.982 6.9446H135.992L142.617 23.0532H138.246ZM133.385 10.7415H132.6L130.13 16.903H135.867L133.385 10.7415Z" fill="black"></path><path d="M162.708 21.8143C161.615 23.008 158.735 23.0307 157.323 23.0307C155.183 23.0307 152.155 23.1899 150.061 22.6328C148.74 22.2804 147.921 21.4847 147.659 19.8022C147.488 18.7222 147.465 17.574 147.465 16.4713C147.465 15.0617 147.442 13.6862 147.499 12.2993C147.534 10.8896 147.556 9.32081 148.444 8.29768C148.752 7.94527 149.127 7.71791 149.503 7.54739C150.96 6.95625 153.624 6.93351 155.195 6.93351H157.619C159.099 6.93351 161.342 6.88804 162.56 8.03622C163.562 9.00251 163.562 10.8214 163.562 12.2538C163.562 12.4129 163.539 12.6062 163.539 12.7653H159.703C159.68 12.3447 159.68 11.5717 159.418 11.2875C158.985 10.7987 156.105 10.8441 155.4 10.8441C151.461 10.8441 151.313 10.685 151.313 15.721C151.313 16.5168 151.336 18.1083 151.882 18.6313C152.565 19.2679 154.375 19.1201 155.229 19.1201H157.71C159.316 19.1201 159.691 18.745 159.714 16.7783H163.55C163.573 17.1534 163.584 17.5513 163.584 17.9265C163.596 19.2679 163.573 20.8594 162.708 21.8143Z" fill="black"></path><path d="M170.049 23.0532V6.9446H174.546V18.9493H184.563V23.0532H170.049Z" fill="black"></path><path d="M189.411 23.0532V6.9446H203.937V10.7415H193.282V13.0834L203.937 13.072V16.5961L193.282 16.6075V19.188H203.937V23.0532H189.411Z" fill="black"></path><path d="M1.30832 10.515C0.852978 11.936 0.602539 13.4366 0.602539 15.0054C0.602539 19.8255 2.95894 24.0999 6.59031 26.7373L9.83463 16.722L1.30832 10.515Z" fill="black"></path><path d="M15.1278 0.5C8.67335 0.5 3.19784 4.70619 1.30817 10.5153H11.8494L15.1278 0.5Z" fill="black"></path><path d="M28.9363 10.5153C27.0467 4.70619 21.5712 0.5 15.1281 0.5L18.3951 10.5153H28.9363Z" fill="black"></path><path d="M29.6418 15.0054C29.6418 13.4366 29.3914 11.936 28.936 10.5263L20.4211 16.7219L23.6654 26.7372C27.2854 24.0998 29.6418 19.8254 29.6418 15.0054Z" fill="black"></path><path d="M6.59039 26.7265C8.98095 28.4658 11.9407 29.5003 15.1281 29.5003C18.3155 29.5003 21.2638 28.4772 23.6658 26.7265L15.1281 20.5536L6.59039 26.7265Z" fill="black"></path></g><defs><clipPath id="clip0_0_44"><rect width="203.334" height="29.0003" fill="white" transform="translate(0.602539 0.5)"></rect></clipPath></defs></svg>