<svg xmlns:xlink="http://www.w3.org/1999/xlink" xmlns="http://www.w3.org/2000/svg" width="183" height="26" viewBox="0 0 183 26" fill="none">
<path d="M46.8735 15.6142C45.9052 16.8678 43.6833 16.6945 42.4297 16.6945H37.8331V20.221H34.7041V5.77881H42.5826C43.0922 5.77881 43.5814 5.77881 44.091 5.79919C45.0796 5.81958 46.2517 5.97246 46.9958 7.01205C47.7092 8.01087 47.7092 10.0901 47.7092 11.4048C47.7092 12.791 47.648 14.595 46.8735 15.6142ZM43.3368 9.41738C43.0922 9.41738 42.8272 9.397 42.5826 9.397H38.0165V13.0763H43.3164C44.5089 13.0763 44.7331 12.7706 44.7331 11.1093C44.7433 9.52949 44.3356 9.45815 43.3368 9.41738Z" fill="black"/>
<path d="M53.4873 20.2215V5.7793H66.4924V9.18345H56.9526V11.283L66.4924 11.2728V14.4324L56.9526 14.4426V16.7562H66.4924V20.2215H53.4873Z" fill="black"/>
<path d="M80.7925 20.2215L75.7576 9.45864L75.8391 20.2215H72.2617V5.7793H78.0406L83.208 16.5421L83.1265 5.7793H86.7039V20.2215H80.7925Z" fill="black"/>
<path d="M101.625 9.45864V20.2215H97.8134V9.45864H92.4932V5.7793H106.935V9.45864H101.625Z" fill="black"/>
<path d="M123.243 20.2215L122.275 17.7754H114.753L113.785 20.2215H109.83L115.843 5.7793H121.225L127.157 20.2215H123.243ZM118.891 9.18345H118.188L115.976 14.7076H121.113L118.891 9.18345Z" fill="black"/>
<path d="M145.145 19.1102C144.167 20.1804 141.588 20.2008 140.324 20.2008C138.408 20.2008 135.697 20.3435 133.822 19.844C132.64 19.5281 131.906 18.8146 131.671 17.3062C131.519 16.338 131.498 15.3086 131.498 14.3199C131.498 13.0561 131.478 11.8229 131.529 10.5794C131.559 9.31562 131.58 7.90911 132.375 6.99182C132.65 6.67587 132.986 6.47203 133.323 6.31915C134.627 5.78916 137.012 5.76877 138.419 5.76877H140.59C141.914 5.76877 143.922 5.72801 145.013 6.75741C145.91 7.62373 145.91 9.25447 145.91 10.5387C145.91 10.6814 145.889 10.8546 145.889 10.9973H142.455C142.434 10.6202 142.434 9.92714 142.2 9.67234C141.813 9.23408 139.234 9.27485 138.602 9.27485C135.076 9.27485 134.943 9.13216 134.943 13.6473C134.943 14.3607 134.963 15.7876 135.453 16.2564C136.064 16.8272 137.685 16.6947 138.449 16.6947H140.671C142.108 16.6947 142.444 16.3583 142.465 14.5951H145.9C145.92 14.9315 145.93 15.2882 145.93 15.6245C145.94 16.8272 145.92 18.2541 145.145 19.1102Z" fill="black"/>
<path d="M151.719 20.2215V5.7793H155.745V16.5421H164.714V20.2215H151.719Z" fill="black"/>
<path d="M169.057 20.2215V5.7793H182.062V9.18345H172.522V11.283L182.062 11.2728V14.4324L172.522 14.4426V16.7562H182.062V20.2215H169.057Z" fill="black"/>
<path d="M13.005 0L9.4276 8.16386L0.631836 8.97922L7.18534 14.8601L5.36096 23.5131L13.0254 19.0898L20.6491 23.5131L18.7432 14.911L25.368 8.97922L16.6232 8.20463L13.005 0Z" fill="white"/>
<path d="M0.631909 8.97949C0.224226 10.2535 0 11.5989 0 13.0054C0 17.3268 2.10976 21.159 5.36103 23.5236L8.26578 14.5444L0.631909 8.97949Z" fill="#00AF68"/>
<path d="M13.005 0C7.22611 0 2.32372 3.77107 0.631836 8.97922H10.0697L13.005 0Z" fill="#FFC836"/>
<path d="M25.3679 8.97922C23.676 3.77107 18.7736 0 13.0049 0L15.93 8.97922H25.3679Z" fill="#763AC7"/>
<path d="M25.9997 13.0049C25.9997 11.5984 25.7755 10.2531 25.3678 8.98926L17.7441 14.5439L20.6489 23.5232C23.89 21.1586 25.9997 17.3264 25.9997 13.0049Z" fill="#4586F6"/>
<path d="M5.36035 23.5128C7.50069 25.0722 10.1506 25.9997 13.0044 25.9997C15.8582 25.9997 18.4979 25.0824 20.6485 23.5128L13.0044 17.9785L5.36035 23.5128Z" fill="#EF3346"/>
</svg>