<svg xmlns:xlink="http://www.w3.org/1999/xlink" xmlns="http://www.w3.org/2000/svg" width="143" height="20" viewBox="0 0 143 20" fill="none" class="icon"><g clip-path="url(#clip0_2798_560)" fill="none"><path d="M21.6072 19.6167H27.3229V0.386703H21.6072V19.6167ZM30.7863 19.6133H36.4478V9.38263L44.2327 19.6133H49.2395V0.38331H43.578V10.2307L36.095 0.38331H30.7897V19.6133H30.7863ZM0.840576 19.6133H6.56989V13.2598H13.0183L15.5285 8.93826H6.57328V5.19674H16.5292L19.3073 0.379918H0.843966V19.6099L0.840576 19.6133ZM52.6927 19.6099H58.4084V13.2564H64.8399L67.3433 8.93487H58.405V5.19335H68.3372L71.1086 0.376527H52.6859V19.6065L52.6927 19.6099ZM73.422 19.6167H86.882L89.6737 14.7999H79.1411V0.38331H73.4254V19.6133L73.422 19.6167ZM101.024 20C96.5258 20 91.0238 15.5224 91.0238 10C91.0238 4.47761 95.5014 0 101.024 0C106.546 0 111.024 4.47761 111.024 10C111.024 15.5224 106.546 20 101.024 20ZM101.024 5.06784C98.2999 5.06784 96.0916 7.27612 96.0916 10C96.0916 12.7239 98.2999 14.9322 101.024 14.9322C103.748 14.9322 105.956 12.7239 105.956 10C105.956 7.27612 103.748 5.06784 101.024 5.06784ZM114.097 19.5726H119.691L125.895 8.82632L127.676 19.5658H131.753L142.852 0.342605H136.339L130.99 9.60651L129.446 0.339213H125.118L119.748 9.60651V0.342605H114.097V19.5692V19.5726Z" fill="black"></path></g><defs><clipPath id="clip0_2798_560"><rect width="143" height="20" fill="white"></rect></clipPath></defs></svg>